<svg viewBox="0 0 198 52" width="198" height="52" xmlns="http://www.w3.org/2000/svg" fill-rule="evenodd" clip-rule="evenodd" stroke-linejoin="round" stroke-miterlimit="2"><path d="M100.92 45.53L98.1 39.3l-1.48 3.03c-.36.8-.2 1.64.29 2.56l3.06 6.52c.45.79 1.42.8 1.79-.01l.98-1.88-.15-.32-1.6-3.52-.06-.15zM24.56 0C30.7 0 36.6 2.4 41.25 6.35c.54.55.61 1.37.07 1.92l-4.24 4.44c-.55.54-1.17.54-1.78 0a15.52 15.52 0 0 0-10.33-3.97c-8.55 0-15.33 7.31-15.33 15.85 0 8.47 6.78 15.64 15.4 15.64 3.83 0 6.77-1.16 8.14-1.7v-5.81H27.7c-.75 0-1.3-.55-1.3-1.23v-5.4c0-.75.55-1.3 1.3-1.3h13.14c.68 0 1.23.62 1.23 1.3v17.49c0 .54-.28.89-.55 1.1 0 0-7.04 4.43-16.96 4.43A24.38 24.38 0 0 1 0 24.66 24.55 24.55 0 0 1 24.56 0zm123.6 49.11h-6.28c-.67 0-1.28-.62-1.28-1.3V1.3c0-.68.6-1.3 1.28-1.3h6.29c.68 0 1.28.62 1.28 1.3v46.5c0 .7-.6 1.31-1.28 1.31zm-81.91 0h-6.3c-.67 0-1.28-.62-1.28-1.3V1.3c0-.68.61-1.3 1.29-1.3h6.29c.67 0 1.28.62 1.28 1.3v46.5c0 .7-.6 1.31-1.28 1.31zM91.99 0c.82 0 1.23.94 1.23.94l12.66 27.87.16.26 4.47 10.4c.36.8.2 1.64-.29 2.56l-3.05 6.5c-.44.78-1.42.78-1.78-.02l-1.78-4.17-.01.01-1.96-4.32-1.04-2.28-.03-.1-16.3-35.88C83.87.88 84.41 0 85.42 0h6.57zm93.09 48.9h-6.3c-.67 0-1.28-.61-1.28-1.3V8.79h-10.35a1.3 1.3 0 0 1-1.29-1.3V1.32c0-.68.54-1.3 1.28-1.3h29.57c.75 0 1.29.62 1.29 1.3v6.16c0 .69-.54 1.3-1.29 1.3h-10.35v38.83c0 .68-.6 1.3-1.28 1.3zM122.75 0c.98 0 1.5.9 1.1 1.79L109.72 34.6l-.78-1.88c-.07-.16-.15-.3-.24-.41l-3.52-8.1 10-23.26s.4-.95 1.2-.95h6.38z" fill="#009d92"/></svg>